HIERARCHY
ROOT Hips
{
  OFFSET 90.7885 88.945 -76.2838
  CHANNELS 6 Xposition Yposition Zposition Zrotation Xrotation Yrotation
  JOINT LeftUpLeg
  {
    OFFSET 8.64259 1.95398 -2.38835
    CHANNELS 3 Zrotation Xrotation Yrotation
    JOINT LeftLeg
    {
      OFFSET 43.7702 0 0
      CHANNELS 3 Zrotation Xrotation Yrotation
      JOINT LeftFoot
      {
        OFFSET 40.6238 0 0
        CHANNELS 3 Zrotation Xrotation Yrotation
        JOINT LeftToeBase
        {
          OFFSET 12.7242 0 0
          CHANNELS 3 Zrotation Xrotation Yrotation
          End Site
          {
            OFFSET 0 0 0
          }
        }
      }
    }
  }
  JOINT RightUpLeg
  {
    OFFSET -8.2249 1.95398 -2.59336
    CHANNELS 3 Zrotation Xrotation Yrotation
    JOINT RightLeg
    {
      OFFSET 43.5653 0 0
      CHANNELS 3 Zrotation Xrotation Yrotation
      JOINT RightFoot
      {
        OFFSET 40.6238 0 0
        CHANNELS 3 Zrotation Xrotation Yrotation
        JOINT RightToeBase
        {
          OFFSET 12.7242 0 0
          CHANNELS 3 Zrotation Xrotation Yrotation
          End Site
          {
            OFFSET 0 0 0
          }
        }
      }
    }
  }
  JOINT Spine
  {
    OFFSET 0.165834 0.87714 6.61349
    CHANNELS 3 Zrotation Xrotation Yrotation
    JOINT Spine1
    {
      OFFSET 7.38963 1.71661e-005 0
      CHANNELS 3 Zrotation Xrotation Yrotation
      JOINT Spine2
      {
        OFFSET 11.9445 1.14441e-005 0
        CHANNELS 3 Zrotation Xrotation Yrotation
        JOINT Spine3
        {
          OFFSET 14.7254 4.19617e-005 0
          CHANNELS 3 Zrotation Xrotation Yrotation
          JOINT Spine4
          {
            OFFSET 10.9679 0 0
            CHANNELS 3 Zrotation Xrotation Yrotation
            JOINT RightShoulder
            {
              OFFSET 2.46616 -1.6653 3.69651
              CHANNELS 3 Zrotation Xrotation Yrotation
              JOINT RightArm
              {
                OFFSET 13.0012 0 0
                CHANNELS 3 Zrotation Xrotation Yrotation
                JOINT RightForeArm
                {
                  OFFSET 28.7848 1.52588e-005 0
                  CHANNELS 3 Zrotation Xrotation Yrotation
                  JOINT RightHand
                  {
                    OFFSET 26.5688 1.52588e-005 0
                    CHANNELS 3 Zrotation Xrotation Yrotation
                    End Site
                    {
                      OFFSET 0 0 0
                    }
                  }
                }
              }
            }
            JOINT LeftShoulder
            {
              OFFSET 2.38034 -1.29275 -3.7523
              CHANNELS 3 Zrotation Xrotation Yrotation
              JOINT LeftArm
              {
                OFFSET 16.3182 6.10352e-005 0
                CHANNELS 3 Zrotation Xrotation Yrotation
                JOINT LeftForeArm
                {
                  OFFSET 27.0901 0 0
                  CHANNELS 3 Zrotation Xrotation Yrotation
                  JOINT LeftHand
                  {
                    OFFSET 24.5451 1.52588e-005 0
                    CHANNELS 3 Zrotation Xrotation Yrotation
                    End Site
                    {
                      OFFSET 0 0 0
                    }
                  }
                }
              }
            }
            JOINT Neck
            {
              OFFSET 5.0226 -0.0266342 0
              CHANNELS 3 Zrotation Xrotation Yrotation
              JOINT Head
              {
                OFFSET 6.69363 2.86102e-005 0
                CHANNELS 3 Zrotation Xrotation Yrotation
                End Site
                {
                  OFFSET 0 0 0
                }
              }
            }
          }
        }
      }
    }
  }
}
MOTION
Frames:	13
Frame Time:	0.0416667
0.719077 95.2162 146.005 -149.464 -83.4345 -151.556 179.268 19.196 86.5296 -7.63219 -1.89115 -1.79006 67.3806 3.6689 -3.73063 15.482 -2.28021 4.70378 169.686 -11.4785 87.2081 -20.4815 -21.3838 -1.73202 81.905 -10.8992 -3.45852 22.6854 -2.12235 5.63506 1.01892 8.17485 -89.8956 10.5253 2.07749 0.0219794 -1.14398 2.07643 -0.0695282 -23.6915 1.97479 0.645579 -3.67888 1.97479 0.645572 88.0168 -27.5964 -111.756 28.4074 -12.9781 -13.5221 -0.0405817 -22.7886 -21.9533 -25.756 -0.497592 -8.22796 -88.3344 -59.8571 82.904 -20.5469 3.74157 -2.7447 7.72649 -4.55627 -13.397 -1.14423 -0.129601 -7.97206 -1.8987 -2.05221 3.7492 0.44057 -2.54214 -2.41754 
0.95597 94.4397 153.02 -141.247 -82.9773 -143.461 179.565 17.6701 85.9988 -8.3525 -1.47472 -2.05473 60.1537 1.65158 -3.73552 13.1367 -0.883639 3.34578 168.756 -16.3088 85.7709 -18.8851 -22.3415 -2.40754 80.6316 -10.6697 -4.58099 27.1191 -2.89203 6.95317 1.07876 8.04956 -89.8613 10.7756 2.21214 0.0710177 -0.893417 2.21313 -0.026468 -23.4424 2.08848 0.732862 -3.4298 2.08848 0.732857 87.8205 -28.0225 -111.952 29.9871 -13.7777 -12.7163 -0.177756 -22.8804 -21.8825 -25.2098 -0.43873 -8.62484 -88.0545 -60.6268 83.3976 -20.709 4.828 -2.04841 7.3625 -4.07208 -12.0276 -1.19242 -0.119708 -7.20301 -2.22329 -1.7063 4.04508 0.108236 -2.2228 -2.6233 
1.34643 94.4642 160.906 -135.27 -81.8217 -139.324 -179.639 17.2184 83.6518 -15.6147 0.309554 -2.94432 60.0747 0.921262 -2.55886 7.74899 -0.459505 3.47232 166.675 -18.8183 81.753 -21.2935 -24.0082 -3.82999 74.3001 -7.61221 -4.44412 37.2009 -3.91867 9.17747 1.10906 7.94184 -89.5645 10.9848 2.40967 0.637194 -0.684054 2.43537 0.530456 -23.2325 2.10673 1.33219 -3.21979 2.10673 1.3322 87.5304 -28.8507 -112.143 33.5031 -14.9349 -10.9399 1.29928 -23.3783 -19.4415 -24.7186 -0.390775 -9.09459 -87.9889 -60.089 83.4046 -21.2343 5.56147 -1.10917 6.73219 -5.90404 -8.68953 -1.34417 -0.112304 -6.78609 -2.58472 -1.55075 2.51883 -0.611914 -1.85257 -1.7419 
1.69404 94.7944 168.33 -138.616 -80.1929 -144.78 -178.521 13.834 81.2152 -21.9239 1.44157 -4.32279 66.4515 2.88928 -2.6232 3.88559 0.0244932 3.41458 165.77 -16.9055 77.7671 -32.6665 -26.068 -5.96375 66.3099 -3.53764 -2.71152 40.7658 -4.68153 11.4421 0.99813 7.98038 -89.264 10.9004 2.32765 1.24537 -0.768926 2.38019 1.14168 -23.3108 1.84579 1.8874 -3.29816 1.84579 1.88739 87.331 -29.4303 -112.266 37.3156 -15.8594 -8.18873 3.15666 -23.6592 -17.1885 -21.3703 -0.392123 -9.62883 -88.1533 -59.2899 83.0607 -21.828 5.86274 -0.42703 6.47828 -7.65107 -6.14503 -2.86162 -0.0816104 -6.58572 -3.45205 -1.15181 0.992826 -0.852638 -1.2555 -0.396515 
1.85936 95.0633 174.286 -133.524 -77.9821 -140.593 -178.137 9.68271 80.5093 -24.4487 -0.58601 -5.41917 71.4514 4.6241 -3.05397 6.65916 0.546492 2.59544 168.504 -8.81602 75.8642 -50.001 -28.0881 -7.37157 55.6738 1.29337 1.23635 29.6707 -2.62843 6.32062 0.942808 8.05228 -89.1375 10.7527 2.27521 1.50511 -0.916955 2.33924 1.40349 -23.4552 1.71776 2.11928 -3.44259 1.71777 2.11928 86.9267 -29.9441 -112.818 39.2681 -16.4361 -5.69679 4.23366 -24.4319 -16.1614 -24.5791 -0.63284 -8.04662 -88.2513 -58.4587 82.7964 -21.887 6.29472 -1.47057 6.37148 -7.7117 -4.71885 -2.01472 -0.0959917 -6.19641 -3.30698 -0.366624 -0.20807 -1.11438 -0.336454 0.476426 
1.75179 95.3037 178.922 -128.206 -76.2133 -134.996 -178.693 6.7494 80.0705 -25.3564 -2.1114 -5.27726 74.8129 5.42367 -2.17252 6.73764 1.08647 2.04887 174.008 0.174087 77.3575 -62.9042 -27.5771 -7.79767 58.1848 0.235693 0.474373 27.071 -2.16664 5.30524 0.762158 8.09948 -89.2254 10.6624 1.87449 1.36916 -1.00784 1.93293 1.28531 -23.5438 1.37642 1.86917 -3.53112 1.37642 1.86917 86.0171 -29.336 -114.882 40.7607 -15.0004 -2.57903 3.12541 -21.8892 -17.1356 -24.6988 -0.434956 -8.33344 -89.0315 -58.5337 81.7422 -20.8791 6.94589 -3.18977 6.18265 -6.92792 -5.04922 -1.03983 -0.100369 -5.21614 -2.97162 0.976699 0.425785 -1.07748 0.921841 0.246343 
1.12891 95.8275 183.421 -131.284 -76.1621 -135.173 -178.581 3.69795 81.9943 -26.59 -0.714904 -3.63881 77.0284 5.85062 -1.26498 8.66357 0.847162 2.03949 177.251 6.04733 82.1163 -63.0589 -20.2964 -6.34774 68.3485 -4.73851 -0.827935 26.9087 -2.05833 5.07621 0.416141 8.2241 -89.5617 10.4222 1.02991 0.780364 -1.24854 1.06326 0.734262 -23.7838 0.74778 1.0538 -3.77115 0.747776 1.0538 87.6867 -30.7329 -110.987 39.19 -15.648 -3.27051 3.07673 -23.4659 -17.2004 -24.7247 -0.616572 -7.81367 -88.856 -57.3111 81.7756 -18.1946 10.7453 -8.44365 4.71928 -6.12937 -4.2132 0.00489535 -0.103678 -5.49506 -2.85259 1.75843 -1.96561 -0.731738 1.98967 2.03285 
0.251345 96.2977 187.51 -134.238 -77.2102 -135.539 -177.864 0.630178 84.6282 -25.8283 1.18277 -2.70556 78.8804 6.65264 -1.08834 10.3217 0.499318 2.17925 179.175 11.5191 87.3458 -54.73 -11.1737 -5.48098 71.8578 -6.76898 -1.84324 26.2053 -1.91271 4.83702 0.0692145 8.2847 -89.8826 10.3039 0.191653 0.217067 -1.36705 0.201021 0.208408 -23.9021 0.117559 0.264629 -3.88949 0.117555 0.264623 87.9203 -31.5833 -110.173 38.371 -14.2027 -2.60914 3.12173 -22.5451 -16.9525 -25.0821 -0.584867 -7.68841 -88.7398 -55.0386 81.5429 -16.8876 12.1357 -14.4049 4.2628 -5.45305 -4.23907 2.28158 -0.111128 -5.07417 -3.13372 2.37599 -3.68708 -1.147 2.79162 3.08158 
-0.632037 96.5324 191.712 -140.411 -79.4742 -140.124 -177.436 -1.73935 86.5168 -25.1178 3.30971 -1.72548 80.258 7.2842 -1.10705 10.5549 0.748954 1.88388 179.612 15.0524 90.6855 -39.805 -7.94827 -4.71067 70.2513 -6.23328 -0.714764 23.9343 -1.39531 3.99134 -0.337145 8.30045 -90.0676 10.2731 -0.702533 -0.0738069 -1.39767 -0.705099 -0.0428289 -23.9341 -0.647878 -0.281556 -3.92143 -0.647871 -0.281552 88.1089 -32.0855 -109.603 38.6849 -12.9721 -1.8871 2.87304 -21.9724 -16.8279 -25.2612 -0.479879 -8.07655 -88.7566 -52.4863 81.06 -17.103 10.305 -19.4433 5.65475 -2.45111 -6.72796 0.712746 -0.137181 -6.08685 -2.81697 2.6531 -5.50574 -1.8926 3.26751 4.20699 
-1.16838 96.4582 196.267 -151.211 -81.6904 -150.717 -177.066 -4.37026 87.2586 -24.007 7.10252 -1.35633 81.2257 8.02211 -0.434924 12.8862 -0.527136 2.97791 178.183 15.9085 91.6544 -21.7557 -11.9193 -2.87087 63.8606 -3.52826 0.0719425 23.872 -2.44371 6.21216 -0.689406 8.32552 -90.1113 10.2228 -1.42437 -0.0995864 -1.44738 -1.42737 -0.0367988 -23.9881 -1.32859 -0.52315 -3.97549 -1.32858 -0.523142 88.3777 -33.0409 -108.713 38.6212 -12.6497 -1.02133 2.96195 -22.4338 -17.4717 -24.5626 -0.444152 -8.47778 -88.9616 -50.6349 80.4063 -16.6375 8.72161 -24.4687 6.83647 -0.388522 -9.28994 1.98258 -0.179863 -6.71909 -1.61589 2.37958 -7.30083 -2.38365 3.25395 5.51686 
-1.6898 95.8503 201.635 -159.866 -82.8015 -159.226 -176.326 -8.34629 88.3087 -22.1909 9.23314 -1.45749 83.4669 9.21454 0.0409956 12.7919 0.207965 2.17598 175.976 15.5292 93.5166 -7.62802 -14.5318 -1.17524 61.6456 -1.61504 -0.580705 27.946 -2.06543 4.97888 -0.880081 8.33218 -90.1736 10.2089 -1.83273 -0.188468 -1.4608 -1.83925 -0.107601 -24.005 -1.69134 -0.730716 -3.99239 -1.69134 -0.730718 88.1568 -33.5749 -108.917 38.555 -12.5024 0.0761078 3.03636 -22.3676 -17.312 -23.0698 -0.554315 -7.9916 -89.1038 -50.0719 80.0835 -17.3782 7.09971 -28.2211 8.05945 0.874509 -11.5706 2.50174 -0.218767 -7.38612 -1.24596 2.18063 -7.46043 -2.56819 3.0921 5.36453 
-2.25965 94.6521 207.683 -167.479 -83.7235 -166.782 -175.256 -12.1744 89.6887 -21.4536 10.383 -1.71261 86.2278 10.4034 -0.537894 14.1166 0.929117 1.16255 175.612 17.6213 94.9513 -7.22141 -8.9828 0.0318923 62.8027 -1.65811 0.522367 29.1829 -1.90204 4.44733 -0.997154 8.22859 -90.2161 10.4153 -2.08537 -0.246323 -1.25398 -2.09419 -0.154267 -23.8007 -1.9149 -0.861898 -3.78805 -1.9149 -0.861898 88.0686 -34.4753 -108.732 38.4334 -12.528 0.609595 4.35088 -21.6807 -15.0562 -22.8153 -0.462644 -8.33288 -89.2322 -49.9824 79.873 -18.3566 7.22333 -30.2861 8.22495 0.586793 -12.2339 2.50358 -0.218264 -7.36916 -1.5654 2.25659 -7.70365 -3.29575 3.14356 5.53158 
-2.64003 93.859 214.629 178.343 -83.6692 179.206 -173.929 -17.4296 91.4829 -19.7079 11.9401 -1.59608 83.838 9.47823 -2.3526 21.6499 -0.943537 2.54841 175.959 17.6252 95.6247 -11.5432 -9.78715 -0.0539746 58.6655 0.471623 -1.27235 25.3817 -2.23311 5.58823 -1.16206 8.16665 -90.3177 10.5378 -2.46047 -0.411675 -1.13083 -2.4762 -0.302931 -23.6814 -2.22295 -1.13245 -3.66875 -2.22295 -1.13245 87.7809 -35.1227 -109.009 37.926 -11.9577 1.49734 4.84111 -21.8603 -13.9324 -21.9101 -0.510648 -8.22045 -89.5575 -51.0559 79.6062 -18.6639 8.75157 -30.21 8.07253 2.48088 -11.8411 2.1281 -0.186795 -6.81987 -1.32054 2.33802 -6.55635 -3.64026 3.07398 5.67523 
